<?xml version="1.0" standalone="no"?>
<!DOCTYPE svg PUBLIC "-//W3C//DTD SVG 20010904//EN"
 "http://www.w3.org/TR/2001/REC-SVG-20010904/DTD/svg10.dtd">
<svg version="1.0" xmlns="http://www.w3.org/2000/svg"
 width="900.000000pt" height="900.000000pt" viewBox="0 0 900.000000 900.000000"
 preserveAspectRatio="xMidYMid meet">
<metadata>
Created by potrace 1.10, written by Peter Selinger 2001-2011
</metadata>
<g transform="translate(0.000000,900.000000) scale(0.100000,-0.100000)"
fill="#000000" stroke="none">
<path d="M0 4500 l0 -4500 4500 0 4500 0 0 4500 0 4500 -4500 0 -4500 0 0
-4500z m3005 80 c8 -16 15 -37 15 -48 0 -44 46 -56 56 -14 10 42 41 99 58 105
8 3 22 0 31 -7 14 -10 17 -31 17 -132 -1 -65 -1 -125 -1 -131 -1 -7 -10 -13
-21 -13 -19 0 -20 7 -20 89 0 89 -5 121 -20 121 -4 0 -10 -15 -13 -32 -10 -66
-34 -113 -57 -113 -21 0 -38 31 -57 100 -12 49 -13 51 -23 35 -6 -8 -10 -57
-10 -107 0 -86 -1 -93 -20 -93 -11 0 -20 3 -20 8 -1 4 -1 63 -2 131 -1 108 1
126 17 137 23 17 50 3 70 -36z m873 17 c16 -15 22 -32 22 -61 0 -54 -30 -86
-81 -86 -42 0 -49 -11 -49 -71 0 -32 -3 -39 -20 -39 -11 0 -20 6 -21 13 0 6 0
66 -1 131 0 99 3 122 16 132 24 17 107 6 134 -19z m192 23 c70 0 104 -73 64
-136 -16 -23 -15 -27 15 -75 36 -59 38 -69 12 -69 -11 0 -28 15 -41 35 -31 51
-48 65 -76 65 -16 0 -24 -6 -25 -17 0 -10 -2 -31 -2 -48 -2 -23 -7 -30 -22
-30 -19 0 -20 7 -20 133 0 107 3 135 15 142 8 6 21 8 28 5 8 -3 31 -5 52 -5z
m683 -12 c50 -19 67 -53 67 -131 0 -67 -1 -71 -36 -103 -25 -25 -46 -35 -72
-36 -20 -1 -53 -3 -72 -3 -19 -1 -41 0 -47 2 -16 6 -18 264 -3 279 12 12 124
7 163 -8z m960 13 c4 -1 7 -10 7 -21 0 -17 -7 -20 -42 -20 -68 0 -70 -4 -68
-116 2 -129 3 -124 -20 -124 -18 0 -20 8 -22 118 l-3 117 -55 5 c-39 4 -55 9
-55 20 0 8 10 17 23 20 18 4 183 4 235 1z m-2898 -12 c6 -8 10 -195 6 -256 -1
-7 -10 -13 -21 -13 -19 0 -20 7 -20 140 0 115 3 140 14 140 8 0 18 -5 21 -11z
m669 -2 c24 -18 11 -51 -14 -37 -10 6 -40 10 -65 10 -38 0 -52 -5 -76 -29 -63
-63 -24 -171 61 -171 70 0 95 66 32 84 -45 13 -44 43 2 51 19 4 44 4 56 0 19
-6 21 -13 18 -72 -3 -58 -6 -68 -29 -85 -29 -22 -114 -27 -148 -9 -41 22 -63
68 -62 131 0 70 11 94 54 120 38 23 143 27 171 7z m972 -9 c73 -50 74 -181 1
-238 -30 -24 -110 -30 -145 -11 -42 22 -64 67 -63 131 0 33 5 69 11 80 31 58
136 79 196 38z m484 -82 c0 -99 1 -104 25 -120 33 -22 68 -20 90 5 15 16 19
39 21 109 3 95 7 110 30 110 11 0 14 -21 14 -108 0 -103 -1 -109 -27 -141 -25
-29 -33 -32 -82 -33 -45 0 -58 4 -80 26 -23 24 -27 36 -32 124 -5 100 1 132
26 132 12 0 15 -19 15 -104z m475 91 c29 -22 10 -37 -40 -30 -88 12 -135 -21
-135 -93 0 -25 4 -53 10 -63 15 -30 65 -44 125 -37 43 5 55 3 55 -8 0 -25 -29
-38 -88 -39 -89 0 -127 28 -152 115 -16 52 25 139 74 158 34 14 130 11 151 -3z
m535 0 c42 -21 70 -74 70 -133 0 -48 -4 -57 -38 -94 -37 -38 -42 -40 -97 -40
-55 0 -60 2 -97 40 -34 37 -38 46 -38 94 0 90 52 146 135 146 22 0 51 -6 65
-13z m-3018 -939 c1 -7 2 -42 4 -78 1 -36 3 -70 3 -77 1 -6 11 -13 23 -15 31
-4 34 -26 5 -39 -14 -6 -29 -24 -33 -41 -11 -38 -27 -38 -38 1 -8 29 -35 43
-76 39 -38 -3 -60 3 -60 18 0 9 28 58 62 110 49 73 67 94 85 94 13 0 24 -6 25
-12z m239 -19 c27 -29 29 -36 29 -116 0 -80 -2 -86 -29 -114 -37 -36 -84 -39
-124 -6 -24 19 -29 32 -34 84 -7 80 1 122 32 156 37 39 87 37 126 -4z m244 4
c30 -33 39 -73 33 -155 -4 -53 -8 -64 -34 -84 -41 -34 -88 -32 -125 5 -27 28
-29 34 -29 114 0 80 2 87 29 116 39 41 89 43 126 4z m507 15 c1 -7 2 -42 4
-78 1 -36 3 -70 3 -77 1 -6 11 -13 23 -15 31 -4 34 -26 5 -39 -14 -6 -29 -24
-33 -41 -11 -38 -27 -38 -38 1 -6 22 -16 32 -37 36 -16 4 -33 4 -38 0 -17 -10
-61 6 -61 22 0 8 28 57 62 109 49 73 67 94 85 94 13 0 24 -6 25 -12z m239 -19
c27 -29 29 -36 29 -114 0 -92 -16 -125 -69 -143 -30 -11 -69 2 -99 32 -16 16
-27 120 -18 168 16 85 101 116 157 57z m244 4 c30 -33 39 -73 33 -155 -4 -53
-8 -64 -34 -84 -41 -34 -88 -32 -125 5 -27 28 -29 34 -29 114 0 80 2 87 29
116 39 41 89 43 126 4z m379 8 c26 -29 13 -39 -42 -33 -85 8 -97 -49 -13 -64
20 -4 48 -15 64 -26 23 -17 27 -26 27 -68 0 -45 -3 -51 -31 -66 -40 -20 -86
-22 -127 -5 -55 23 -41 41 32 41 109 0 118 49 15 83 -61 19 -79 38 -79 79 0
66 110 107 154 59z m110 13 c9 -3 16 -12 16 -20 0 -7 6 -28 14 -46 8 -18 22
-52 32 -76 29 -70 28 -70 88 71 9 21 16 44 16 52 0 18 39 30 53 16 7 -7 7 -14
0 -23 -6 -7 -27 -56 -47 -108 -49 -128 -59 -145 -81 -145 -22 0 -29 13 -88
162 -48 123 -49 135 -3 117z m474 -10 c39 -27 21 -38 -62 -39 -70 0 -79 -2
-96 -25 -26 -34 -26 -94 1 -131 18 -25 27 -29 70 -29 42 0 51 3 58 22 12 34 2
56 -30 63 -82 18 -18 49 74 36 4 0 7 -31 5 -68 l-3 -68 -40 -19 c-90 -43 -189
5 -195 94 -6 84 -1 102 40 142 38 35 45 38 98 38 36 0 66 -6 80 -16z m-1797
-76 c10 -13 18 -31 19 -40 0 -31 29 -19 55 22 16 25 33 40 45 40 27 0 25 -10
-10 -58 l-30 -42 21 -40 c12 -22 25 -43 30 -46 17 -10 9 -34 -11 -34 -12 0
-29 15 -45 40 -14 22 -29 40 -34 40 -6 0 -20 -18 -32 -40 -16 -29 -29 -40 -46
-40 -29 0 -29 2 2 50 14 22 25 50 25 62 0 13 -11 40 -25 60 -14 20 -25 39 -25
42 0 16 44 3 61 -16z"/>
<path d="M3777 4573 c-4 -3 -7 -21 -7 -40 0 -39 19 -51 59 -37 31 11 39 45 16
68 -17 16 -56 22 -68 9z"/>
<path d="M4019 4573 c-11 -62 -4 -83 26 -83 42 0 55 11 55 45 0 21 -6 35 -16
39 -22 8 -64 8 -65 -1z"/>
<path d="M4631 4571 c-10 -6 -12 -30 -9 -94 2 -48 7 -90 11 -93 10 -10 66 -7
97 6 32 13 50 47 50 96 0 51 -45 94 -97 94 -21 0 -44 -4 -52 -9z"/>
<path d="M4316 4549 c-39 -46 -33 -121 13 -156 25 -19 76 -15 105 8 22 18 26
28 26 75 0 45 -4 59 -25 79 -36 37 -86 34 -119 -6z"/>
<path d="M5826 4549 c-56 -66 -20 -169 59 -169 20 0 42 9 59 25 58 54 17 175
-59 175 -25 0 -40 -8 -59 -31z"/>
<path d="M2865 3597 c-33 -35 -56 -77 -50 -87 7 -12 75 -14 76 -2 13 93 4 122
-26 89z"/>
<path d="M3070 3610 c-15 -15 -20 -33 -20 -73 0 -64 20 -97 59 -97 35 0 51 32
51 98 0 81 -45 117 -90 72z"/>
<path d="M3316 3608 c-19 -26 -21 -106 -4 -143 15 -33 60 -35 82 -3 24 34 21
123 -4 148 -26 26 -55 25 -74 -2z"/>
<path d="M3855 3597 c-33 -35 -56 -77 -50 -87 7 -12 75 -14 76 -2 13 93 4 122
-26 89z"/>
<path d="M4060 3610 c-15 -15 -20 -33 -20 -73 0 -64 20 -97 59 -97 35 0 51 32
51 98 0 81 -45 117 -90 72z"/>
<path d="M4306 3608 c-19 -26 -21 -106 -4 -143 15 -33 60 -35 82 -3 24 34 21
123 -4 148 -26 26 -55 25 -74 -2z"/>
</g>
</svg>
